<?xml version="1.0" encoding="UTF-8" standalone="no"?>
<!-- Created with Inkscape (http://www.inkscape.org/) -->

<svg
   xmlns:dc="http://purl.org/dc/elements/1.1/"
   xmlns:cc="http://creativecommons.org/ns#"
   xmlns:rdf="http://www.w3.org/1999/02/22-rdf-syntax-ns#"
   xmlns:svg="http://www.w3.org/2000/svg"
   xmlns="http://www.w3.org/2000/svg"
   xmlns:sodipodi="http://sodipodi.sourceforge.net/DTD/sodipodi-0.dtd"
   xmlns:inkscape="http://www.inkscape.org/namespaces/inkscape"
   width="210mm"
   height="297mm"
   viewBox="0 0 744.09448819 1052.3622047"
   id="svg2"
   version="1.1"
   inkscape:version="0.91 r13725"
   sodipodi:docname="grass.svg">
  <defs
     id="defs4">
    <inkscape:perspective
       sodipodi:type="inkscape:persp3d"
       inkscape:vp_x="0 : 526.1811 : 1"
       inkscape:vp_y="0 : 1000 : 0"
       inkscape:vp_z="744.09449 : 526.1811 : 1"
       inkscape:persp3d-origin="372.04724 : 350.7874 : 1"
       id="perspective3374" />
  </defs>
  <sodipodi:namedview
     id="base"
     pagecolor="#ffffff"
     bordercolor="#666666"
     borderopacity="1.0"
     inkscape:pageopacity="0.0"
     inkscape:pageshadow="2"
     inkscape:zoom="1.4"
     inkscape:cx="473.80887"
     inkscape:cy="634.94068"
     inkscape:document-units="px"
     inkscape:current-layer="layer1"
     showgrid="false"
     inkscape:window-width="1920"
     inkscape:window-height="955"
     inkscape:window-x="-13"
     inkscape:window-y="0"
     inkscape:window-maximized="0" />
  <metadata
     id="metadata7">
    <rdf:RDF>
      <cc:Work
         rdf:about="">
        <dc:format>image/svg+xml</dc:format>
        <dc:type
           rdf:resource="http://purl.org/dc/dcmitype/StillImage" />
        <dc:title></dc:title>
      </cc:Work>
    </rdf:RDF>
  </metadata>
  <g
     inkscape:label="Layer 1"
     inkscape:groupmode="layer"
     id="layer1">
    <path
       style="fill:#338000;fill-rule:evenodd;stroke:#000000;stroke-width:1px;stroke-linecap:butt;stroke-linejoin:miter;stroke-opacity:1"
       d="m 367.85714,640.21935 c 0,0 1.90476,-234.28571 -30.35715,-304.64285 -32.2619,-70.35715 3.92858,-184.64287 3.92858,-184.64287 0,0 -66.66666,95.4762 -46.42857,168.57144 20.2381,73.09523 0.71429,337.14285 0.71429,337.14285 z"
       id="path3357"
       inkscape:connector-curvature="0"
       sodipodi:nodetypes="cscscc" />
    <path
       style="fill:#b3ff80;fill-rule:evenodd;stroke:#000000;stroke-width:1px;stroke-linecap:butt;stroke-linejoin:miter;stroke-opacity:1"
       d="m 391.03203,640.82086 c 0,0 -28.33333,-235.71429 3.92858,-306.07143 32.2619,-70.35715 236.07142,-118.92857 236.07142,-118.92857 -54.97209,52.15301 -195.94371,79.50947 -202.14286,139.28572 -7.82364,75.4406 34.28571,302.14285 34.28571,302.14285 z"
       id="path3357-0"
       inkscape:connector-curvature="0"
       sodipodi:nodetypes="cscscc" />
    <path
       style="fill:#99ff55;fill-rule:evenodd;stroke:#000000;stroke-width:1px;stroke-linecap:butt;stroke-linejoin:miter;stroke-opacity:1"
       d="m 323.25367,655.82085 c 0,0 9.04762,-205 -23.21429,-275.35714 -32.2619,-70.35715 -170.35714,-146.78572 -170.35714,-146.78572 0,0 123.33334,101.90477 143.57143,175.00001 20.2381,73.09523 -22.14285,263.57142 -22.14285,263.57142 z"
       id="path3357-6"
       inkscape:connector-curvature="0"
       sodipodi:nodetypes="cscscc" />
    <path
       style="fill:#99ff55;fill-rule:evenodd;stroke:#000000;stroke-width:1px;stroke-linecap:butt;stroke-linejoin:miter;stroke-opacity:1"
       d="m 349.60346,650.10657 c 0,0 38.80952,-195.71428 71.07143,-266.07142 32.2619,-70.35715 175.35714,-56.78573 175.35714,-56.78573 0,0 -129.04763,13.33334 -149.28572,86.42858 -20.2381,73.09523 -25,252.85714 -25,252.85714 z"
       id="path3357-8"
       inkscape:connector-curvature="0"
       sodipodi:nodetypes="cscscc" />
    <path
       style="fill:#55d400;fill-rule:evenodd;stroke:#000000;stroke-width:1px;stroke-linecap:butt;stroke-linejoin:miter;stroke-opacity:1"
       d="m 329.19537,665.32672 c 0,0 -13.33333,-190 18.92858,-260.35715 32.26191,-70.35715 34.64286,-263.92858 34.64286,-263.92858 0,0 18.80952,189.76191 -1.42858,262.85715 -20.2381,73.09524 42.85714,267.85715 42.85714,267.85715 z"
       id="path3357-8-1"
       inkscape:connector-curvature="0"
       sodipodi:nodetypes="cscscc" />
    <path
       style="fill:#f4e3d7;fill-rule:evenodd;stroke:#000000;stroke-width:1px;stroke-linecap:butt;stroke-linejoin:miter;stroke-opacity:1"
       d="m 39.285714,555.21934 c 0,0 65.714286,40.71429 198.571426,30.71429 132.85714,-10 305.71429,-68.57143 381.42857,-37.85714 75.71429,30.71428 75,39.28571 75,39.28571 l 2.14286,85.71429 -658.571427,4.28571 z"
       id="path3403"
       inkscape:connector-curvature="0" />
  </g>
</svg>
